<svg xmlns="http://www.w3.org/2000/svg" xmlns:xlink="http://www.w3.org/1999/xlink" viewBox="0 0 50 50" fill="#FFFFFF">
  <path d="M4.8457031 6C3.2757031 6 2 7.2757031 2 8.8457031L2 18L48 18L48 8.8457031C48 7.2757031 46.724297 6 45.154297 6L4.8457031 6 z M 8 10C9.104 10 10 10.895 10 12C10 13.104 9.104 14 8 14C6.896 14 6 13.104 6 12C6 10.895 6.896 10 8 10 z M 14 10C15.104 10 16 10.895 16 12C16 13.104 15.104 14 14 14C12.896 14 12 13.104 12 12C12 10.895 12.896 10 14 10 z M 19 10L43 10L43 14L19 14L19 10 z M 2 20L2 43C2 43.553 2.447 44 3 44L47 44C47.553 44 48 43.553 48 43L48 20L2 20 z M 13.970703 24C14.668703 24 15.207969 24.192266 15.417969 24.572266C16.353969 24.706266 16.768828 25.346047 16.923828 26.123047C16.979828 26.404047 17 26.702 17 27C17 27.649 16.868813 28.265375 16.757812 28.609375C16.866813 28.677375 17.045 28.89425 17 29.28125C16.917 30.00125 16.630219 30.183219 16.449219 30.199219C16.379219 30.870219 15.760297 31.666016 15.529297 31.791016C15.529297 32.270016 15.512594 32.635156 15.558594 33.160156C16.112594 34.694156 19.830953 34.264656 20.001953 37.222656L20.001953 38L20 38L8 38L8 37.222656C8.172 34.264656 11.904984 34.694156 12.458984 33.160156C12.504984 32.635156 12.488281 32.270016 12.488281 31.791016C12.257281 31.667016 11.620781 30.870219 11.550781 30.199219C11.369781 30.183219 11.085953 30.00125 11.001953 29.28125C10.956953 28.89425 11.135141 28.678375 11.244141 28.609375C11.103141 28.052375 10.997 27.508 11 27C11.002 26.693 11.03275 26.4 11.09375 26.125C11.37075 24.87 12.279703 24 13.970703 24 z M 26 26L42 26L42 28L26 28L26 26 z M 26 31L42 31L42 33L26 33L26 31 z M 26 36L39 36L39 38L26 38L26 36 z" fill="#FFFFFF" />
</svg>