<svg xmlns="http://www.w3.org/2000/svg" xmlns:xlink="http://www.w3.org/1999/xlink" viewBox="0 0 50 50" fill="white">
  <path d="M20 2C17.8 2 16 3.8 16 6L16 9L8 9C4.1 9 1 12.1 1 16L1 47C1 47.6 1.4 48 2 48L48 48C48.6 48 49 47.6 49 47L49 16C49 12.1 45.9 9 42 9L34 9L34 6C34 3.8 32.2 2 30 2L20 2 z M 20 4L30 4C31.1 4 32 4.9 32 6L32 9L18 9L18 6C18 4.9 18.9 4 20 4 z M 26.099609 16.900391L26.599609 17.900391L27 17.900391C28.6 17.900391 31 19.5 31 22.5C31 23.2 30.9 24.000391 30.5 24.900391C30.7 25.000391 31 25.399219 31 26.199219C30.8 27.499219 30.3 27.900391 30 27.900391C30 29.500391 28.499609 31.2 28.099609 31.5L28.099609 33.5C29.099609 36.4 35.099609 35 35.099609 40L15 40C15 35 21 36.4 22 33.5L22 31.5C21.6 31.3 20.099609 29.500391 20.099609 27.900391C19.799609 27.900391 19.199609 27.499219 19.099609 26.199219C18.999609 25.499219 19.399609 25.100391 19.599609 24.900391C19.299609 24.100391 19.099609 23.3 19.099609 22.5C19.099609 18.9 21.599609 16.900391 26.099609 16.900391 z" fill="white" />
</svg>